<?xml version="1.0" encoding="utf-8"?>
<!-- Generator: Adobe Illustrator 19.0.0, SVG Export Plug-In . SVG Version: 6.00 Build 0)  -->
<svg version="1.1" id="Layer_1" xmlns:v="https://vecta.io/nano"
	 xmlns="http://www.w3.org/2000/svg" xmlns:xlink="http://www.w3.org/1999/xlink" x="0px" y="0px"
	 viewBox="-514.1 525.6 270.9 153.6" style="enable-background:new -514.1 525.6 270.9 153.6;" xml:space="preserve">
<style type="text/css">
	.st0{fill:#FFFFFF;}
</style>
<path class="st0" d="M-384.6,601.6h7.1c-1.1-0.4-1.8-1.5-1.9-2.7l0.2-33.6l-0.7-39.6c0,0-0.4-0.7-0.5,1.8l-2,71.4
	C-382.4,600.2-383.3,601.3-384.6,601.6 M-382.5,527.1c0,0,0,2.4,2,1.9l0.1-1.1C-380.4,528-381.9,527-382.5,527.1"/>
<path class="st0" d="M-382.6,529.8c0,0,0,2.4,2,1.9l0.1-1.1C-380.5,530.7-382,529.7-382.6,529.8 M-382.6,532.5c0,0,0,2.4,2,1.9
	l0.1-1.1C-380.5,533.4-382,532.4-382.6,532.5 M-382.8,535.4c0,0,0,2.4,2,1.9l0.1-1.1C-380.7,536.2-382.2,535.3-382.8,535.4
	 M-382.9,538c0,0,0,2.4,2,1.9l0.1-1.1C-380.8,538.9-382.3,537.9-382.9,538 M-383,540.7c0,0,0,2.4,2,1.9l0.1-1.1
	C-380.9,541.5-382.4,540.6-383,540.7 M-379.9,544.8l5.8-3v-0.6c-1.1,0.1-2-0.7-2.1-1.8c0,0,0-0.1,0-0.1v-0.4
	c0.8,0.1,1.5,0.3,2.1,0.7c-1.1-0.6-1.8-1.7-1.9-2.9c1.1,0.1,2,0.7,2.6,1.6c0,0,0.7-0.6,2.7-0.3c-0.3,1.2-1.3,2-2.6,2.1v2l-6.4,4.3
	L-379.9,544.8L-379.9,544.8z M-373.2,537.6c0,0-0.2-1.9,2.1-2.1C-371,535.4-371,537.8-373.2,537.6 M-386.7,537.8
	c0,0-2.3-0.4-2.2-2.5C-388.9,535.3-387.1,534.9-386.7,537.8"/>
<path class="st0" d="M-384.1,536.6c0,1.1-1,2.1-2.1,2h-0.2C-386.4,538.6-386.5,536.9-384.1,536.6 M-389.2,537.9c0.1,1.1,1,2,2.1,1.9
	h0.3C-386.8,539.8-386.7,538-389.2,537.9 M-388,544.9c1.1,0.2,2.1-0.6,2.3-1.7v-0.3C-385.6,543-387.3,542.4-388,544.9 M-392.5,541.4
	c-0.1,1.1,0.7,2.1,1.8,2.2h0.3C-390.5,543.6-390,541.9-392.5,541.4 M-387.5,548c-1.1-0.2-2.1,0.6-2.3,1.7v0.3
	C-389.8,550-388.1,550.5-387.5,548 M-385.2,548.9c-0.7-0.1-1.3,0.1-1.9,0.5c-0.5,0.4-0.8,1.1-0.8,1.7
	C-387.9,551.2-385.9,551.8-385.2,548.9 M-383.2,549.8c-0.7-0.1-1.4,0.1-1.9,0.5c-0.5,0.5-0.9,1.1-0.9,1.8
	C-386,552.2-384,552.8-383.2,549.8 M-381.4,551c-0.7-0.1-1.3,0.1-1.9,0.5c-0.5,0.4-0.8,1.1-0.8,1.7
	C-384.1,553.2-382.1,553.9-381.4,551 M-385.6,560.8c-0.7-0.1-1.3,0.1-1.9,0.5c-0.5,0.4-0.8,1.1-0.8,1.7
	C-388.3,563-386.3,563.7-385.6,560.8 M-383.7,561.7c-1.3-0.2-2.5,0.7-2.7,2v0.3C-386.4,564-384.4,564.6-383.7,561.7 M-373.1,572.2
	c0,0.7,0.3,1.3,0.8,1.8c0.5,0.4,1.2,0.6,1.9,0.5C-370.5,574.5-370.1,572.5-373.1,572.2 M-376.1,579.3c0,0,0,3.1,2.9,2.9
	C-373.1,582.2-372.8,579.6-376.1,579.3 M-362.7,584.5c0,0,0,3.1,2.9,2.9C-359.8,587.4-359.4,584.8-362.7,584.5 M-370.8,591.3
	c0,0-2.6,1.3-1.3,3.5c1.3-0.5,1.9-1.9,1.4-3.2C-370.8,591.5-370.8,591.4-370.8,591.3 M-355.4,574.5c0,0,0,2.8,2.6,2.7
	C-352.8,577.2-352.5,574.8-355.4,574.5 M-359.8,569.4c0,0,0,2.8,2.6,2.7C-357.2,572.1-356.9,569.7-359.8,569.4 M-360.2,575.2
	c0,0-0.1,3.1,2.7,3c0.1-0.8-0.2-1.5-0.7-2.1C-358.7,575.5-359.4,575.2-360.2,575.2 M-376.4,585.5c0,0,0,3.1,2.9,2.9
	C-373.4,588.4-373.1,585.8-376.4,585.5 M-366.9,575.3c0,0-2.9,1.4-1.6,3.7c1.4-0.5,2.1-2,1.7-3.4
	C-366.8,575.5-366.8,575.4-366.9,575.3 M-381.8,562.6c-1.3-0.2-2.5,0.7-2.7,2v0.3C-384.5,564.9-382.5,565.5-381.8,562.6
	 M-387.8,559.6c-0.7-0.1-1.3,0.1-1.9,0.5c-0.5,0.4-0.8,1.1-0.8,1.7C-390.4,561.9-388.5,562.5-387.8,559.6 M-389.7,558.6
	c-1.3-0.2-2.5,0.7-2.7,2v0.3C-392.4,560.9-390.4,561.5-389.7,558.6 M-391.5,557.6c-1.3-0.2-2.5,0.7-2.7,2v0.3
	C-394.2,559.9-392.3,560.5-391.5,557.6 M-391.7,555.3c-1.3-0.2-2.5,0.7-2.7,2v0.3C-394.4,557.6-392.4,558.2-391.7,555.3
	 M-383.4,554.5c-1.4-0.2-2.6,0.7-2.8,2.1c0,0,0,0,0,0v0.3C-386.3,556.9-384.2,557.6-383.4,554.5 M-374,548.3
	c0.1,1.3,1.3,2.3,2.7,2.2c0.1,0,0.2,0,0.3-0.1C-371,550.4-370.9,548.3-374,548.3 M-381.3,555.7c-0.7-0.1-1.4,0.1-1.9,0.5
	c-0.5,0.5-0.9,1.1-0.9,1.8C-384.1,558.1-382.1,558.7-381.3,555.7 M-365.8,557.7c0.1-1.4-1-2.5-2.3-2.6h-0.3
	C-368.4,555.2-368.9,557.3-365.8,557.7 M-383.9,566.8c-0.7-0.1-1.4,0.1-1.9,0.5c-0.5,0.5-0.9,1.1-0.9,1.8
	C-386.7,569.2-384.6,569.8-383.9,566.8 M-368.7,566.7c-0.6,0.1-1,0.5-1.3,1.1c-0.3,0.5-0.3,1.1-0.1,1.7
	C-370.1,569.4-368.3,569.2-368.7,566.7 M-358.1,566.1c-0.6-0.1-1.2,0.1-1.6,0.5c-0.4,0.4-0.7,0.9-0.7,1.5
	C-360.4,568.2-358.7,568.7-358.1,566.1 M-363.8,564.4c-0.1,0.6,0.1,1.2,0.5,1.6c0.4,0.4,1,0.7,1.6,0.6
	C-361.7,566.6-361.3,564.9-363.8,564.4 M-401.6,559c-0.1,1.1,0.7,2.1,1.8,2.2h0.3C-399.5,561.2-399.1,559.4-401.6,559 M-401.8,561.4
	c-0.1,1.1,0.7,2.1,1.8,2.2h0.3C-399.7,563.6-399.2,561.9-401.8,561.4 M-401.8,566.1c-0.1,1.2,0.8,2.3,2,2.4h0.3
	C-399.5,568.6-399,566.7-401.8,566.1 M-387.9,564.6c-0.7-0.1-1.4,0.1-1.9,0.5c-0.5,0.5-0.9,1.1-0.9,1.8
	C-390.7,567-388.6,567.6-387.9,564.6 M-389.6,563.6c-0.7-0.1-1.4,0.1-1.9,0.6s-0.9,1.1-0.9,1.8
	C-392.4,565.9-390.4,566.6-389.6,563.6 M-391.6,562.5c-0.7-0.1-1.4,0.1-1.9,0.5c-0.5,0.5-0.9,1.1-0.9,1.8
	C-394.4,564.9-392.3,565.5-391.6,562.5 M-393.2,561.3c-0.7-0.1-1.4,0.1-1.9,0.6s-0.9,1.1-0.9,1.8
	C-396.1,563.7-394,564.4-393.2,561.3 M-385.2,553.6c-0.7-0.1-1.4,0.1-1.9,0.6s-0.9,1.1-0.9,1.8C-388,555.9-386,556.6-385.2,553.6
	 M-378.6,555.8c-0.1,1.4,1,2.5,2.3,2.6h0.3C-375.9,558.3-375.5,556.2-378.6,555.8 M-386.9,552.3c-1.4-0.2-2.6,0.7-2.8,2.1
	c0,0,0,0,0,0v0.3C-389.7,554.7-387.6,555.4-386.9,552.3 M-388.9,551.4c-0.7-0.1-1.4,0.1-1.9,0.5c-0.5,0.5-0.9,1.1-0.9,1.8
	C-391.7,553.7-389.7,554.4-388.9,551.4 M-394.6,560.4c-0.1-1.3-1.3-2.3-2.7-2.2c-0.1,0-0.2,0-0.3,0.1
	C-397.6,558.3-397.7,560.4-394.6,560.4 M-394.4,558c-0.1-0.7-0.4-1.3-1-1.8c-0.6-0.4-1.3-0.6-2-0.4
	C-397.4,555.8-397.5,557.9-394.4,558 M-394.4,555.5c-0.1-1.3-1.3-2.3-2.7-2.2c-0.1,0-0.2,0-0.3,0.1
	C-397.4,553.3-397.5,555.5-394.4,555.5 M-394.4,553.2c-0.1-0.7-0.4-1.3-1-1.8s-1.3-0.6-2-0.4C-397.4,551-397.5,553.2-394.4,553.2
	 M-394.5,550.9c0-0.6-0.2-1.2-0.6-1.6c-0.4-0.4-1-0.6-1.7-0.6C-396.8,548.7-397.1,550.5-394.5,550.9 M-367,543.7
	c-1.3-0.2-2.6,0.7-2.8,2v0.3C-369.8,546-367.8,546.7-367,543.7 M-362.9,553.3c-0.7-0.1-1.4,0.1-1.9,0.5c-0.5,0.5-0.9,1.1-0.9,1.8
	C-365.8,555.7-363.7,556.3-362.9,553.3 M-367.5,541.7c-0.6-0.1-1.2,0.1-1.7,0.5c-0.5,0.4-0.8,1-0.8,1.6
	C-369.9,543.8-368.1,544.3-367.5,541.7 M-363.4,551.5c-1.2-0.2-2.3,0.6-2.4,1.8v0.3C-365.9,553.5-364.1,554.1-363.4,551.5
	 M-392.5,543.7c-0.1,1.1,0.7,2.1,1.8,2.2h0.3C-390.5,545.9-390,544.2-392.5,543.7 M-392.6,546.1c-0.1,1.1,0.7,2.1,1.8,2.2h0.3
	C-390.6,548.3-390.1,546.6-392.6,546.1 M-392.5,548.3c-0.1,1.1,0.7,2.1,1.8,2.2h0.3C-390.5,550.5-390,548.8-392.5,548.3 M-385.9,546
	c1.1,0.2,2.1-0.6,2.3-1.7V544C-383.6,544-385.3,543.5-385.9,546 M-384.1,547c0.6,0.1,1.2-0.1,1.6-0.4c0.4-0.4,0.7-0.9,0.7-1.5
	C-381.8,545.1-383.4,544.5-384.1,547 M-389.2,540.2c0.1,0.6,0.3,1.1,0.8,1.5c0.5,0.4,1.1,0.6,1.7,0.5c0-0.6-0.3-1.2-0.8-1.6
	C-388,540.3-388.6,540.1-389.2,540.2 M-386.4,541.3c1.2-0.3,2.2-1.1,2.6-2.3C-383.8,539-386.3,539-386.4,541.3"/>
<path class="st0" d="M-386.4,537.5l0.3,4.2l5.5,3l0.1,1.1l-6.3-3.4C-386.9,542.4-387.1,537.4-386.4,537.5 M-390.1,545l0.3,4.3
	l0.1,0.5l9.1,5.2l-0.3,1.1l-9.5-5.6C-390.5,550.5-390.9,545.6-390.1,545 M-379.5,556.9l9.8-6.5v-5.7l-0.6,5.3l-9.2,4.7V556.9z
	 M-394.4,550.5l0.3,9.5l13.2,6.5v2.4l-14-8.2L-394.4,550.5L-394.4,550.5z M-379.2,569.1l13.9-8.5l-0.5-9l-0.5,8.2l-13,6.4
	C-379.3,566.2-379.2,569.1-379.2,569.1z M-370.8,567.3c0,0.6-0.3,1.1-0.9,1.3c-0.5,0.2-1.1,0.1-1.5-0.3c-0.4-0.4-0.5-1-0.3-1.5
	c0.2-0.5,0.7-0.9,1.3-0.9C-371.4,565.9-370.8,566.5-370.8,567.3 M-373.8,574.4c0,0.6-0.3,1.1-0.9,1.3c-0.5,0.2-1.1,0.1-1.5-0.3
	c-0.4-0.4-0.5-1-0.3-1.5c0.2-0.5,0.7-0.9,1.3-0.9C-374.5,573-373.8,573.6-373.8,574.4 M-368.4,581.4c0,0.6-0.3,1.1-0.9,1.3
	c-0.5,0.2-1.1,0.1-1.5-0.3c-0.4-0.4-0.5-1-0.3-1.5c0.2-0.5,0.7-0.9,1.3-0.9C-369.1,580-368.4,580.7-368.4,581.4L-368.4,581.4"/>
<path class="st0" d="M-359.4,579.5c0,0.6-0.3,1.1-0.9,1.3c-0.5,0.2-1.1,0.1-1.5-0.3c-0.4-0.4-0.5-1-0.3-1.5c0.3-0.7,1.1-1.1,1.8-0.8
	c0.2,0.1,0.3,0.2,0.5,0.3C-359.5,578.7-359.3,579.1-359.4,579.5 M-366.7,590.6c0,0.6-0.3,1.1-0.9,1.3c-0.5,0.2-1.1,0.1-1.5-0.3
	c-0.4-0.4-0.5-1-0.3-1.5c0.2-0.5,0.7-0.9,1.3-0.9C-367.3,589.2-366.7,589.8-366.7,590.6 M-399.3,558.1l0.5,11.6l17.4,9.1v2.8
	l-18.2-11C-399.6,570.6-399.8,559.4-399.3,558.1 M-379.4,579l17.6-9.4l0.7-9.8l0.7,10.4l-19,11.7V579L-379.4,579z"/>
<path class="st0" d="M-357.2,566.4l-0.7,13.4l-21.6,10.7v4.1l23.1-13.9C-356.4,580.6-356.6,566.2-357.2,566.4 M-381.7,590.5
	l-21.5-10.7l-0.6-12.7l-0.9,13.9l22.7,13.9L-381.7,590.5L-381.7,590.5z M-493.5,615.9h19.9c0,0,1.5-0.2,1.5,1.1v6.5c0,0.7-0.2,1-1,1
	c-0.8,0-1.1-1-1.5-2.4c-0.4-1.4-2.1-4.4-3.9-4.4h-6.4v9.9c0,0,4.2,1.1,4.8-3.2c0,0,0.2-1.1,0.8-1.1c0.6,0,1.2,1.2,1.2,2.4v7.2
	c0,1.1-0.2,2-1.1,2s-0.9-0.9-1.1-1.9c-0.3-2-2.1-3.4-4.1-3.2c-0.2,0-0.3,0.1-0.5,0.1v9.9c0,0.6,1.3,0.7,2.2,0.9
	c0.9,0.2,2.4,1.6-1.4,1.6h-9.8c-1.3,0-1.4-1.5,0.1-1.5s3.1-0.4,3.1-1.5v-20.5c0-1.1-0.9-1.4-2.6-1.4S-494.9,616.1-493.5,615.9
	 M-453.5,632.4c0,5.8-4.3,10.4-9.5,10.4c-5.3,0-9.5-4.7-9.5-10.4c0-5.8,4.3-10.4,9.5-10.4C-457.8,622-453.5,626.7-453.5,632.4
	 M-467.6,627.5v9.6c-0.2,2.2,1.5,4.2,3.8,4.3h0.6c2.2,0.2,4.1-1.4,4.3-3.5v-10.7c0.1-2.1-1.4-3.8-3.5-4h-0.6
	C-467.3,623.2-467.6,626.4-467.6,627.5 M-303.7,632.4c0,5.8-4.3,10.4-9.5,10.4s-9.5-4.7-9.5-10.4c0-5.8,4.3-10.4,9.5-10.4
	S-303.7,626.7-303.7,632.4 M-317.8,627.5v9.6c-0.2,2.2,1.5,4.2,3.8,4.3h0.6c2.2,0.2,4.1-1.4,4.3-3.5v-10.7c0.1-2.1-1.4-3.8-3.5-4
	h-0.6C-317.5,623.2-317.8,626.4-317.8,627.5 M-451,623.8c0,0-0.7-0.4-0.7-0.9s0.5-0.6,1.6-0.6h4.8c1.7,0,3.4-0.2,3.4,0.6
	c0,0.8-0.8,0.7-1.3,0.7s-1.3-0.2-1.3,0.8l0.1,12.9c0,2.2,0.6,4.1,4.1,4.1s4.6-2.4,4.6-4.8v-12.8c0,0-2.4,0.3-2.4-0.8
	c0,0-0.1-0.6,1.5-0.6h4.3c0.7,0,1.3,0,1.3,0.4c0,0.4,0,0.9-2.7,0.9l-0.3,12.2c-0.1,1.9-0.1,6.8-7.2,6.8s-7.6-3.5-7.8-5.8
	c-0.2-2.3,0-11.9,0-12.4S-449.7,623.8-451,623.8 M-429.3,623c0-0.7,0.5-0.7,1.4-0.7h9.7c1.2,0,5.7,0.2,5.7,4.5s-4.3,5.2-4.3,5.2
	s3.1,0.8,3.5,5.3s1,3.9,1.8,3.9c0.8,0,1.1,0.3,1.1,0.9c0,0.6-3.2,1.1-4.7,0.3c-1.7-0.8-2.6-2.6-2.5-4.4c0-2.5-1-5.4-3.9-5.4h-0.8
	v8.1c0,0.3,0.2,0.4,1,0.4c0.8,0,1.5,0.2,1.5,0.7s-1.2,0.6-4.8,0.6c-2.6,0-5,0.1-5-0.5c0-0.9,1.4-0.4,1.9-0.7
	c0.5-0.3,0.7-0.7,0.7-1.9V626c0-1.3,0.1-2.1-0.6-2.1C-428.7,623.8-429.4,623.6-429.3,623 M-422.4,629.5c0,1.3,0.5,1.5,1.9,1.5
	s3.4-0.4,3.4-3.5c0-3.1-1.8-3.8-3.5-3.8c-1.7,0-1.8,0.6-1.8,0.6V629.5L-422.4,629.5z M-383.1,618.3c0,0,0.4-2.7-0.7-2.7
	s-1.1,1.4-2.2,1.3c-1.2-0.1-1.2-1.5-4.9-1.5c-3.6,0-7.8,1.5-7.8,7.9c0,6.4,6.2,7.4,8.6,8.2c2.4,0.8,4.8,1.6,4.8,4.8
	c-0.1,2.7-2.2,4.9-4.9,5.2c-3.2-0.1-6-2.3-6.8-5.4c0,0-0.3-1.8-1.4-1.8s-0.9,1-0.9,2.2v4.8c0,0.6,1.2,2.2,2.8-0.1
	c0,0,1.4,1.7,6.4,1.7c4.9,0,7.9-4.8,7.9-9.3s-3.1-7.2-7.6-8.4c-4.5-1.2-5.8-2.1-5.8-4.8c0-2.7,2.6-3.7,5-3.7c2.4,0,4.8,2.5,5.1,5.7
	c0,0.6,0.5,1,1.1,1h0.1C-383.3,623.4-383.1,623.3-383.1,618.3 M-326.2,624.1c0,0,0.3-2.1-0.5-2.1c-0.8,0-0.8,1.1-1.7,1
	c-0.9-0.1-0.9-1.2-3.7-1.2c-2.8,0-5.9,1.2-5.9,6s4.8,5.7,6.6,6.3c1.8,0.6,3.6,1.3,3.6,3.6c-0.1,2.1-1.7,3.8-3.7,4
	c-2.5-0.1-4.6-1.7-5.2-4.1c0,0-0.2-1.4-1-1.4c-0.8,0-0.7,0.7-0.7,1.7v3.8c0,0.5,0.9,1.5,2.1-0.2c0,0,1.1,1.3,4.8,1.3s6-3.6,6-7.1
	s-2.4-5.5-5.8-6.4c-3.4-0.9-4.4-1.6-4.4-3.6s1.9-2.8,3.8-2.8s3.6,1.9,3.9,4.4c0,0.2,0.1,0.4,0.3,0.6c0.2,0.1,0.4,0.2,0.6,0.2
	C-326.3,628-326.2,627.9-326.2,624.1 M-266.4,624.1c0,0,0.3-2.1-0.5-2.1c-0.8,0-0.8,1.1-1.7,1c-0.9-0.1-0.9-1.2-3.7-1.2
	c-2.8,0-5.9,1.2-5.9,6s4.8,5.6,6.6,6.3c1.8,0.7,3.6,1.3,3.6,3.6c-0.1,2.1-1.7,3.8-3.7,4c-2.5-0.1-4.6-1.7-5.2-4.1c0,0-0.2-1.4-1-1.4
	s-0.7,0.7-0.7,1.7v3.8c0,0.5,0.9,1.5,2.2-0.2c0,0,1.1,1.3,4.8,1.3c3.7,0,6-3.6,6-7.1s-2.4-5.5-5.8-6.4c-3.4-0.9-4.4-1.6-4.4-3.6
	s2-2.8,3.8-2.8c1.8,0,3.6,1.9,3.9,4.4c0,0.2,0.1,0.4,0.3,0.6c0.2,0.1,0.4,0.2,0.6,0.2C-266.5,628-266.4,627.9-266.4,624.1
	 M-362.4,640.4v-4.7c-1,0-1.2,0.3-1.4,1.5c0,1.1-0.5,2.2-1.4,2.9c-1.2,1.2-4.4,0.8-5.5,0.8s-1.1-0.5-1.1-0.5v-7.5h1.4
	c0.8,0.1,1.4,0.6,1.6,1.4c0.3,1,0.5,2.3,1.2,2.3c0.7,0,0.8-1.4,0.8-3.5v-4.4c0-0.5-0.1-0.8-0.8-0.8c-0.7,0-0.8,0.6-0.9,1.3
	c-0.1,0.7-0.3,2-1.8,2h-1.5v-5.4c0-1.6,0.2-2.1,0.7-2.1h3.5c2,0,3.4,2.2,3.5,2.8s0.2,1.5,1,1.5c0.8,0,0.7-0.9,0.7-1.8v-2.9
	c0-0.5-0.3-0.9-0.7-0.9h-15.4c-0.6,0-0.7,1.1,0.7,1.1c1.1,0,1.1,0.9,1.1,1.9v13.8c0,2.1-1.2,1.8-1.9,2c-0.7,0.2-0.6,1.1,1,1.1h13.3
	C-362.1,642.3-362.4,641.2-362.4,640.4 M-342.2,641.1c-0.8,0-1.1-0.7-1.4-1.4c-0.3-0.7-4.9-14.4-5.5-16c-0.6-1.6-0.8-1.8-1.3-1.8
	s-0.7,0.1-1,0.8l-6.9,18.4c-1.4,0-1.9,0.2-1.9,0.5s0.3,0.5,0.7,0.5h2.3c2.6,0,3.4,0.1,3.4-0.5c0-0.4-0.7-0.5-1.1-0.5h-1.4l1.7-4.8
	h5.6l1,2.7c0.7,1.9,0,2,0,2c-1.8,0-2,0.3-2,0.5s0.3,0.6,1.1,0.6h5.1c3.1,0,3.1-0.4,3.1-0.6S-341.2,641.2-342.2,641.1 M-354,635.1
	l2.3-6.1l2.2,6.1H-354z"/>
<path class="st0" d="M-300.5,622.3h6.7l7.9,11.2v-9.7h-1.4c-0.6,0-0.9-0.3-0.9-0.7s0.5-0.7,2.2-0.7h3.8c0.8,0,1.1,0.1,1.1,0.5
	c0,0.4-0.8,0.8-2.8,0.8v16.8c0,1,0.2,2.3-1.1,2.3c-1.5,0-12.4-16.7-12.4-16.7v13.7c0,0.8,0.3,1.3,0.8,1.3c1.1,0,1.8,0,1.8,0.5
	s-0.5,0.7-3.5,0.7c-2.8,0-3.4,0-3.4-0.7s0.8-0.5,1.6-0.5c0.5,0,0.8-0.2,0.8-1.3v-16.2h-1.3c-0.4,0-1-0.1-1-0.7
	C-301.6,622.3-301.1,622.3-300.5,622.3 M-494.1,671.5c0.9-1.5,1.9-3,2.9-4.4l-2.8,0.4c-3.5,5.5-9.1,11.3-16,11.3
	c-2.5,0-4.1-1.2-4.1-2.7c0-0.5,0.1-0.9,0.4-1.3c0.3-0.4,0.7-0.6,1.2-0.6c0.9,0,1.6,0.4,1.6,1.4c0.1,0.7-0.5,1.3-1.2,1.4h-0.1
	c-0.3,0-0.6,0.1-0.6,0.4c0,0.6,1.7,1,2.7,1c6.1,0,10.3-6.7,13.2-10.6c-3.1,0.6-5.9,2-8.2,4.1l-0.2-0.2c1.4-1.7,5.8-4,8.8-4.3
	c2.5-3.6,7.9-9.8,12.2-12.5l-0.1-0.1c-1.5,1.1-3.3,1.7-5.1,1.8c-2.9,0-3.9-3-7.5-3s-7.7,3.3-7.7,6.9c0,0.9,0.3,1.7,0.9,2.3
	c0.6,0.6,1.5,0.9,2.3,0.9c3,0,7.2-3.4,8-6.2l0.3,0.1c-0.8,3.3-4,6.6-7.9,6.6c-2.4,0-4-1.3-4-3.8c0-3.9,6-8,9.5-8
	c3.3,0,5.1,3.2,7.9,3.2c2,0,3.8-1.4,5.4-2.5l0.2,0.4c-5.1,3.6-8.4,8.8-11.8,13.8l2.8-0.4c1.2-1.8,2.6-3.4,4.1-4.9l0.1,0.1
	c-1.4,1.4-2.6,3-3.5,4.7l2.7-0.4c2.2-2.8,11.3-13.4,15-13.4c0.6-0.1,1.2,0.4,1.2,1v0.1c0,4.6-9.3,11.8-13.8,12.5
	c-1.6,2.2-5.8,7.4-5.8,10.1c0.1,1.2,1.2,2.1,2.4,2h0.1c5.4,0,10.8-6.5,10.8-9.1c0-1.2-0.6-2-1.6-2c-2.4,0-5.1,2.8-6.4,4.4h-0.4
	c1.5-2,4.2-4.8,6.8-4.8c1.4,0,2,1.1,2,2.5c0,4.3-6.8,9.5-10.7,9.5c-2.7,0-3.8-1.4-3.8-3.8c0-2.8,2.5-6.3,4-8.5l-2.7,0.4
	c-1,1.4-1.9,2.9-2.6,4.5h-0.9V671.5z M-472.4,653.1c-2.5,0-11.1,11.1-12.4,12.6h0.1c4.7-1,13-8.7,13-12.1
	C-471.7,653.3-472,653.1-472.4,653.1 M-460.4,672c-0.8,0.7-1.8,1.2-2.8,1.3c-0.7,0-1.4-0.2-1.9-0.7c-3.4,4.3-6.4,6.2-9.1,6.2
	c-1.2,0-2.2-1-2.2-2.2c0-3.5,6.7-9.8,10.5-9.8c0.6-0.1,1.2,0.2,1.5,0.8c0.1-0.1,0.3-0.1,0.4-0.1c0.5,0,0.7,0.5,0.7,1.1
	c-0.1,1.4-0.7,2.6-1.6,3.7c0.5,0.4,1,0.6,1.7,0.7c1-0.1,1.9-0.5,2.6-1.2C-460.6,671.8-460.4,672-460.4,672z M-464.9,667.9
	c-0.1-0.4-0.5-0.7-0.9-0.7c-1.6,0-4.4,3.4-8.3,7.9c-0.6,0.6-1,1.3-1.1,2.1c0,0.5,0.4,1.1,1.3,1.1c2.5,0,5.9-2.7,8.3-6.1
	c-0.3-0.6-0.5-1.2-0.4-1.9C-465.9,669.4-465.6,668.5-464.9,667.9 M-447.7,659.9h2.4l-4.6,5h2.2l-0.3,0.4h-2.4l-8.9,9.7
	c-1.5,1.6-2.2,2.4-2.2,2.8c0,0.4,0.4,0.5,0.8,0.5c1,0,3.3-1,9.2-6.3l0.2,0.3c-5.1,4.5-7.9,6.4-9.5,6.4c-0.9,0-1.3-0.7-1.3-1.5
	c0-1.1,0.6-2.3,2.7-4.6l6.8-7.4h-2.3l0.4-0.4h2.4C-452.1,664.8-447.7,659.9-447.7,659.9z M-438.6,672.6c-3.4,2.9-7.7,6.2-11.6,6.2
	c-1.1,0-2.2-0.4-2.2-1.8c0-3.9,7-10,10.9-10c0.4,0,0.9,0.1,1.2,0.5c0.3,0.4,0.5,0.7,0.4,1.2c0,3.4-6.3,5.2-9,5.2
	c-2.1,2.3-2.5,3.1-2.5,3.6c0,0.7,0.7,0.9,1.4,0.9c3.2,0,7-2.6,11.3-6.2L-438.6,672.6L-438.6,672.6z M-441.5,667.5
	c-1.4,0-3.3,1.8-7,6c3.9,0,7.7-3.3,7.7-5.3C-440.7,667.8-441,667.5-441.5,667.5C-441.4,667.4-441.5,667.4-441.5,667.5 M-429.1,672.7
	c-5.4,4.9-7.1,6.1-8.7,6.1c-1.4,0-2-0.9-2-2.3c0-4.3,18.2-23.6,22-23.6c0.3,0,0.7,0.1,0.9,0.3c0.2,0.2,0.4,0.6,0.4,0.9
	c0,4.3-10.3,12.6-15.8,14.2c-6,6.8-6.6,8.2-6.6,9.1c0,0.5,0.4,0.9,0.9,0.9c2.1,0,4.8-2.6,9-6.3L-429.1,672.7L-429.1,672.7z
	 M-417.8,653.4c-1.4,0-6.5,4.8-14.1,14.5h0.1c6.1-2.3,14.8-10,14.8-13.6C-417,653.7-417.3,653.4-417.8,653.4"/>
<path class="st0" d="M-426.2,670.7l3-2.8c-0.1-0.3-0.2-0.6-0.2-0.9c0-1,0.6-2.5,1.8-2.5c0.3,0.1,0.6,0.3,0.6,0.6
	c0,0.9-1.2,2.1-1.7,2.8c0.9,1.2,1.7,2.2,1.7,3.8c-0.2,1.4-0.8,2.6-1.7,3.6c2.1-0.2,4-1.3,5.2-3l0.2,0.2c-1.4,1.9-3.6,3.1-5.9,3.2
	c-2,1.7-4.1,3-6.3,3c-1.3,0.2-2.4-0.7-2.6-2v-0.5c0-1.6,1.6-4.2,3.2-4.2c0.7,0,1.2,0.6,1.2,1.2c0,0.7-0.5,1.3-1.2,1.4
	c-0.7,0-1.2-0.5-1.2-1.2v-0.1h-0.1c-0.9,0.7-1.4,1.8-1.4,3c0,1.1,0.6,2,1.7,2c1.7,0,7.9-5.9,7.9-8.4c-0.1-0.7-0.4-1.3-0.9-1.8
	l-3,2.8C-425.9,670.9-426.2,670.7-426.2,670.7z M-393.4,667.5c-2.3,2.2-5.7,6-8.2,8.7c-0.7,0.7-0.9,1.1-0.9,1.4
	c0,0.5,0.4,0.8,0.9,0.8c2.1,0,7.7-4.4,9.4-6.2l0.4,0.2c-1.9,1.9-7.2,6.4-9.9,6.4c-0.4,0-0.8-0.1-1.1-0.4c-0.3-0.3-0.5-0.7-0.5-1.1
	c0-0.5,0.1-1,0.3-1.5h-0.1c-2.1,1.9-3.9,3-5.4,3c-1.2,0.1-2.2-0.8-2.3-2v-0.4c0-4.5,7.9-9.4,10.8-9.4c1.2,0,2.2,0.6,2.2,1.5
	c0,0.3,0,0.6-0.1,0.9h0.1l1.9-2C-395.9,667.4-393.4,667.5-393.4,667.5z M-399.5,667.5c-1.6,0-2.8,0.8-8.8,7.2
	c-1.4,1.5-1.6,2.2-1.6,2.6c0,0.6,0.5,1.1,1.4,1.1c3.4,0,10.3-7.8,10.3-9.6C-398.2,668-398.8,667.4-399.5,667.5 M-386.4,667.5h2.2
	l-3.1,3.4l0.1,0.1c1.7-1.6,4.5-3.7,6.1-3.7c1.1-0.1,2,0.8,2.1,1.8v0.3c0,3-6.1,7.3-6.1,8.5c0,0.3,0.2,0.5,0.4,0.5c0,0,0,0,0.1,0
	c1.2,0,3.6-1.8,8.5-6.3v0.5c-3.9,3.6-7,6.3-8.5,6.3c-0.8,0-1.4-0.5-1.4-1.7c0-2.7,6.1-7.1,6.1-8.5c0-0.6-0.5-1-1-1h-0.1
	c-2.2,0-8,4.9-12.7,10.5h-2.5L-386.4,667.5L-386.4,667.5z M-352.5,656.8h2.5l-18.1,19c-1.2,1.2-1.5,1.7-1.5,2.1c0,0.4,0.4,0.6,1,0.6
	c2,0,4.6-1.8,9.5-6.3l0.1,0.4c-5.2,4.7-7.4,6.4-9.9,6.4c-0.4,0.1-0.8-0.1-1.1-0.3c-0.3-0.2-0.5-0.6-0.5-1c0-0.5,0.1-1,0.3-1.4
	l-0.1-0.1c-1.6,1.6-3.4,2.9-4.9,2.9c-0.6,0.1-1.2-0.2-1.7-0.6c-0.4-0.4-0.6-1.1-0.6-1.7c0-4,6.7-9.3,10.6-9.3c1.3,0,2.2,0.4,2.2,1.4
	c0,0.4-0.1,0.8-0.3,1.2h0.1L-352.5,656.8z M-366.3,667.7c-1.7,0-7,4.4-9,7.2c-1,1.5-1.2,1.9-1.2,2.4c0.1,0.7,0.8,1.2,1.5,1.2
	c2.9,0,10-7.9,10-9.5c0-0.3-0.1-0.7-0.4-0.9C-365.6,667.7-365.9,667.6-366.3,667.7 M-330.9,656c0,5-4.8,10.7-9.7,10.7
	c-1.7,0.1-3.1-1.2-3.2-2.9v-0.4c0-5.4,9.2-11.1,17.7-11.1c1.9,0,3.9,0.3,5.7,1c0.8-0.3,1.6-0.6,2.4-0.8l0.1,0.3
	c-0.7,0.2-1.4,0.5-2,0.8c1.9,0.8,3.2,2.6,3.3,4.7c0,3.7-4.4,6.1-7.6,6.6c0.2,0.5,0.4,1,0.4,1.6c0,2.5-5.4,6.4-5.4,9.7
	c0,1.6,1.4,2.2,2.7,2.2c3.2,0,8.8-5.4,8.8-8.6c0-0.5-0.2-0.9-0.5-1.2c-0.3-0.3-0.8-0.5-1.3-0.4c-1.4,0-3.2,1.7-4,2.8l-0.4-0.2
	c1-1.2,2.8-3,4.4-3c0.6-0.1,1.2,0.2,1.6,0.6c0.4,0.4,0.7,1,0.6,1.6c0,3.8-5,8.9-9.3,8.9c-2.1,0.1-3.9-1.6-4-3.7v-0.4
	c0-3.9,5.6-7.1,5.6-9.8c-0.7,0.2-1.4,0.3-2.1,0.3c-0.6,0.1-1.1-0.1-1.6-0.5c-0.5-0.4-0.7-0.9-0.8-1.5h-0.1c-4,6-9.6,15.5-18.2,15.5
	c-2.7,0-4.3-1.3-4.3-2.9c0-1,0.8-1.8,1.8-1.8c0,0,0,0,0,0c0.9,0,1.7,0.6,1.7,1.5v0.1c0,1.4-2,1.2-2,1.5c0,0.6,1.4,1.2,2.9,1.2
	c9.4,0,16.5-21.1,26.8-24.8c-1.6-0.6-3.2-0.9-4.8-0.9c-9.8,0-17.6,6.4-17.6,10.5c0,1.7,0.8,3.1,2.7,3.1c3.4,0,9.3-5.8,9.3-10.3
	L-330.9,656L-330.9,656z M-320.4,653.8c-2.3,1.4-4.7,3.4-8.6,8.9l0.1,0.1c0.4-0.2,0.9-0.3,1.4-0.3c1.3,0,2.6,0.7,3.2,1.9
	c2.9-0.6,6-3.8,6-6.7C-318.1,656.1-319,654.6-320.4,653.8 M-324.8,664.6c-0.5-1-1.6-1.7-2.8-1.6c-0.8,0-1.2,0.1-1.2,0.6
	c0,0.4,0.7,1.2,2,1.2C-326.1,664.8-325.4,664.7-324.8,664.6 M-301.9,672.6c-3.4,2.9-7.7,6.2-11.6,6.2c-1.1,0-2.2-0.4-2.2-1.8
	c0-3.9,7-10,10.9-10c0.4,0,0.9,0.1,1.2,0.5c0.3,0.3,0.5,0.7,0.4,1.2c0,3.4-6.3,5.2-9,5.2c-2.1,2.3-2.5,3.1-2.5,3.6
	c0,0.7,0.7,0.9,1.4,0.9c3.2,0,7-2.6,11.3-6.2L-301.9,672.6L-301.9,672.6z M-304.9,667.5c-1.4,0-3.3,1.8-7,6c3.9,0,7.7-3.3,7.7-5.3
	c0-0.2-0.1-0.4-0.2-0.5C-304.5,667.5-304.7,667.4-304.9,667.5"/>
<path class="st0" d="M-299,670.7l3-2.8c-0.1-0.3-0.2-0.6-0.2-0.9c0-1,0.6-2.5,1.8-2.5c0.3,0.1,0.6,0.3,0.6,0.6
	c0,0.9-1.2,2.1-1.7,2.8c0.9,1.2,1.7,2.2,1.7,3.8c-0.2,1.4-0.8,2.6-1.7,3.6c2.1-0.2,4-1.3,5.2-3l0.2,0.2c-1.4,1.9-3.6,3.1-5.9,3.2
	c-2,1.7-4.1,3-6.3,3c-0.7,0.1-1.4-0.1-1.9-0.6s-0.8-1.2-0.7-1.9c0-1.6,1.6-4.2,3.2-4.2c0.7,0,1.2,0.6,1.2,1.2c0,0.7-0.5,1.3-1.2,1.4
	c-0.3,0-0.6-0.1-0.9-0.4c-0.3-0.3-0.3-0.6-0.3-0.9h-0.1c-0.9,0.7-1.4,1.8-1.4,3c0,1.1,0.6,2,1.7,2c1.7,0,7.9-5.9,7.9-8.4
	c-0.1-0.7-0.4-1.3-0.9-1.8l-3,2.8L-299,670.7L-299,670.7z"/>
<path class="st0" d="M-275.6,672c-0.8,0.7-1.8,1.2-2.8,1.3c-0.7,0-1.4-0.2-1.9-0.7c-3.4,4.3-6.4,6.2-9.1,6.2c-1.2,0-2.2-1-2.2-2.2
	c0-3.5,6.7-9.8,10.5-9.8c0.6-0.1,1.2,0.2,1.5,0.8c0.1-0.1,0.3-0.1,0.4-0.1c0.5,0,0.7,0.5,0.7,1.1c-0.1,1.4-0.7,2.6-1.6,3.7
	c0.5,0.4,1,0.6,1.7,0.7c1-0.1,1.9-0.5,2.6-1.2L-275.6,672L-275.6,672z M-280,667.9c-0.1-0.4-0.5-0.7-0.9-0.7c-1.6,0-4.4,3.4-8.4,7.9
	c-0.6,0.6-1,1.3-1.1,2.1c0,0.5,0.4,1.1,1.3,1.1c2.5,0,5.9-2.7,8.4-6.1c-0.3-0.6-0.5-1.2-0.4-1.9C-281,669.4-280.7,668.5-280,667.9
	 M-270.4,667.5h2.5l-4.6,5.1l0.1,0.1c1.3-1,2.9-1.7,4.5-2.1c0.2-1.5,2.1-3.3,3-3.3c0.5,0,0.9,0.1,0.9,0.7c0,1.3-2.4,2.6-3.5,2.9
	c0,1,0.4,1.9,1.2,1.9c0.5,0,1.1-0.1,1.5-0.4l0.2,0.3c-0.5,0.3-1,0.5-1.6,0.6c-1.1,0-1.8-0.9-1.8-2.2c-2.9,0.7-5.4,2.4-7.3,4.7
	l-2.2,2.5h-2.3L-270.4,667.5L-270.4,667.5z M-252.1,659.9h2.4l-4.6,5h2.2l-0.3,0.4h-2.4l-8.9,9.7c-1.5,1.6-2.2,2.4-2.2,2.8
	c0,0.4,0.4,0.5,0.8,0.5c1.1,0,3.3-1,9.2-6.3l0.2,0.3c-5.1,4.5-7.9,6.4-9.5,6.4c-0.9,0-1.3-0.7-1.3-1.5c0-1.1,0.6-2.3,2.7-4.6
	l6.8-7.4h-2.4l0.4-0.4h2.4C-256.6,664.8-252.1,659.9-252.1,659.9z"/>
<path class="st0" d="M-252.1,670.7l3-2.8c-0.1-0.3-0.2-0.6-0.2-0.9c0-1,0.6-2.5,1.8-2.5c0.3,0.1,0.6,0.3,0.6,0.6
	c0,0.9-1.2,2.1-1.7,2.8c0.9,1.2,1.7,2.2,1.7,3.8c-0.2,1.4-0.8,2.6-1.7,3.6c2.1-0.2,4-1.3,5.2-3l0.2,0.2c-1.4,1.9-3.6,3.1-5.9,3.2
	c-2,1.7-4.1,3-6.3,3c-1.3,0.2-2.4-0.7-2.6-2v-0.5c0-1.6,1.6-4.2,3.2-4.2c0.7,0,1.2,0.6,1.2,1.2c0,0.7-0.5,1.3-1.2,1.4
	c-0.3,0-0.6-0.1-0.9-0.4c-0.2-0.2-0.3-0.6-0.3-0.9h-0.1c-0.9,0.7-1.4,1.8-1.4,3c0,1.1,0.6,2,1.7,2c1.7,0,8-5.9,8-8.4
	c-0.1-0.7-0.4-1.3-0.9-1.8l-3,2.8L-252.1,670.7L-252.1,670.7z"/>
</svg>
